<?xml version="1.0" encoding="UTF-8"?>
<svg version="1.1" viewBox="0 0 1024 1024" width="1024" height="1024" xmlns="http://www.w3.org/2000/svg">
<path transform="translate(489,91)" d="m0 0h44l21 2 27 5 28 8 25 10 25 12 17 10 10 7 16 12 11 9 12 11 17 17 9 11 13 17 11 17 9 16 12 25 9 25 7 24 3 14 3 21 1 11 9 3 3 7v28l-3 7-7 3h-2v431l-2 5-4 3h-53l-5-4-1-3v-59h-5v52l-3 4-8 1-113-15-90-12-5-3-2-4v-560l3-6 3-2h15l19 3 21 6 18 8 16 9 16 12 15 14 9 10 15 20 12 18 12 17 12 13 10 10 16 10 2 1-1-8v-10l4-6 4-2-4-22-7-27-8-21-10-20-14-22-10-13-12-14-13-13-14-11-17-12-21-12-20-9-21-7-21-5-17-3-13-1h-29l-26 3-23 5-24 8-20 9-18 10-14 10-12 9-20 18-10 11-15 20-13 21-11 23-10 30-5 23-1 12 5 4 2 5v15l-1 2 11-6 11-9 7-6 7-8 13-17 10-15 10-14 10-13 9-10 14-14 13-10 15-9 16-8 17-6 22-5 8-1h15l5 4 1 3v561l-3 5-3 2-43 6-81 11-77 10h-9l-5-5v-52h-5v60l-4 5-2 1h-53l-5-5-1-433-9-4-2-4v-34l5-6 7-1 1-15 5-30 7-26 11-29 8-16 9-17 14-21 10-13 8-10 15-16 9-9 8-7 17-14 27-18 22-12 17-8 18-7 32-9 27-5z" fill="#0A0A0A"/>
<path transform="translate(546,269)" d="m0 0 10 1 21 5 20 8 14 8 14 10 13 12 12 13 15 20 16 24 13 16 11 12 14 11 12 8 1 1v218l-31-1-120-5-29-1-6-1z" fill="#FFFFFF"/>
<path transform="translate(475,269)" d="m0 0h3v359l-1 1-149 6-22 1h-13l-1-1v-216l6-5 13-9 12-11 8-8 13-17 12-18 10-14 10-13 13-14 11-9 9-7 15-9 15-7 15-5 13-3z" fill="#FFFFFF"/>
<path transform="translate(471,668)" d="m0 0h6l1 1v140l-17 3-97 13-68 9h-4v-157l7-1 148-7z" fill="#FFFFFF"/>
<path transform="translate(546,668)" d="m0 0 36 1 146 7 4 1v156l-15-1-129-17-42-6z" fill="#FFFFFF"/>
<path transform="translate(498,109)" d="m0 0h29l27 3 25 5 19 5 22 8 24 11 24 14 18 13 16 13 10 9 14 14 7 8 14 18 13 20 10 18 9 19 9 25 7 27 5 30v6h-32l-4-21-7-28-6-17-9-20-10-19-14-21-13-16-7-8-14-14-11-9-16-12-19-12-22-11-23-9-30-8-28-4h-45l-28 4-24 6-25 9-23 11-18 11-14 10-10 8-11 10-8 7-11 12-11 14-11 16-12 21-8 17-9 25-5 19-5 29h-33l3-24 5-25 6-20 10-26 14-27 16-24 13-16 9-10 11-12 12-11 16-13 16-11 15-9 23-12 21-9 27-8 23-5 21-3z" fill="#FFFFFF"/>
<path transform="translate(772,425)" d="m0 0h29v420h-29z" fill="#FFFFFF"/>
<path transform="translate(224,425)" d="m0 0h28v420h-29v-419z" fill="#FFFFFF"/>
<path transform="translate(546,642)" d="m0 0h14l105 4 66 3 1 1v12h-27l-156-7-3-2z" fill="#FFFFFF"/>
<path transform="translate(465,642)" d="m0 0h12l1 1v11l-1 1-87 4-97 4-1-1v-12l1-1z" fill="#FFFFFF"/>
<path transform="translate(749,476)" d="m0 0h5v280h-5z" fill="#FFFFFF"/>
<path transform="translate(270,476)" d="m0 0h5v280h-5z" fill="#FFFFFF"/>
<path transform="translate(759,393)" d="m0 0h54v13l-1 1h-51l-2-4z" fill="#FFFFFF"/>
<path transform="translate(211,393)" d="m0 0h54v13l-7 1h-46l-1-1z" fill="#FFFFFF"/>
<path transform="translate(749,422)" d="m0 0 5 1v15l-5-1z" fill="#FFFFFF"/>
<path transform="translate(272,422)" d="m0 0h3v16h-5v-15z" fill="#FFFFFF"/>
</svg>
