<?xml version="1.0" encoding="UTF-8"?>
<svg version="1.1" viewBox="0 0 1024 1024" width="1024" height="1024" xmlns="http://www.w3.org/2000/svg">
<path transform="translate(501,91)" d="m0 0h26l30 3 23 4 29 8 21 8 29 14 17 10 17 12 13 10 21 18 7 8 9 9 9 11 12 16 11 17 9 16 13 27 8 23 6 21 5 27 3 27 4 4 1 5-3 5-2 1-1 465h-66l-1-1v-62h-2v53h-10l-64-8h-5l-9 12-11 14-6 7 1 4 15 5 7 7v2h15l11 11 7 8 13 14 7 8 9 10 2 3v22l-1 1h-436l-1-1v-22l12-14 15-16 7-8 14-15 1-1 15-1 6-7 6-3 10-3 2-3-11-13-13-17-19 2-59 7-4-1-2 6h-66l-1-465-5-5 1-7 4-3 4-36 5-23 6-21 9-24 11-23 13-22 13-18 13-16 11-12 15-15 11-9 15-12 20-13 17-10 23-11 21-8 24-7 24-5 25-3z" fill="#0A0A0A"/>
<path transform="translate(482,307)" d="m0 0 6 2 10 5h3l7 6 3 4 4-2 7-7 7-2 11-6 2 1v2h8l10 5 10 6 18 3 10 4 9 7 9 12 7 8 11 9 9 7 9 10 8 13 6 14 4 14 1 6v31l-2-1-6-18-5-21-5-12-8-11-10-9-4-2 12 11 7 10 5 12 8 32 6 15-1 2-7-11-5-11-7-19-6-12-8-10-15-10-11-7-7-8-7-12 2 13 4 13 6 8 13 10 8 7 6 7-7-11-10-9-9-7-7-10 1-2 7 6 17 11 10 9 7 11 5 13 4 17 1 10v18l-3 17-7 19-3 6-1-3 5-17 2-13v-19l-2 22-5 19-11 29-2 18 2 13 2-18 5-12 14-25 2 3 7 22 2 12v14l-3 16-5 14h-1l-2-10v-21l-3-14-4-12 2 15 1 19-2 18-5 16-8 16-1-2 4-13 1-6v-14l-1-6-1 19-4 18-5 12-6 10-9 11-9 9-6 5-2-1 9-14 6-14 3-13 1-9v-9l-2-15-1-3v25l-3 17-5 14-8 14-12 17-6 12-2 6h-1v-7l4-12 14-24 5-14 2-13v-4l-4 16-5 13-8 14-19 28-7 10-6 10-2 3v-8l4-15 7-13 13-18 7-15 3-11 1-7v-16l-3 19-5 16-7 13-14 19-7 14-5 21-2 9h-1v-26l4-15 9-17 8-13-1 1-12 16-8 16-3 11-1 8v20l-2 11-6 12-8 10-4 3-2-16-8-22-3-14-1-9v18l4 15 4 12-1 4-11-23-11-30-8-16-13-18-7-12-5-15-4-21v10l2 15 5 15 7 12 10 14 8 14 8 24v10l-2-3-7-16-34-51-7-15-4-15-1-10v14l4 16 9 17 9 15 2 7v8l-2-3-8-16-12-17-8-15-5-16-2-19v-18l-2 10v25l4 16 8 17 5 7-1 2-11-9-9-10-9-13-6-15-4-18-2-26-1 4v17l4 20 1 6-3-4-5-11-5-17-1-7v-27l2-15-5 14-2 16v17l-1 9h-2l-6-19-2-15 1-14 4-16 5-17 3 3 11 20 4 8 3 11 1 13 2-10v-13l-4-15-6-15-6-20-2-11-1-21v28l6 25 1 4-3-3-7-17-4-15-1-12v-12l2-16 4-15 5-12 7-11 10-9 16-10 6-5 3-3-2 6-6 8-9 8-9 7-7 11 6-7 8-7 12-9 7-10 4-15 2-10-10 16-9 8-19 12-8 8-8 14-9 25-9 16-3 2 8-24 6-25 5-12 9-12 4-5-9 8-7 11-5 11-7 29-4 10h-1l-1-6v-21l4-20 8-19 10-14 7-8 17-13 5-5 8-10 7-8 6-5 8-4 21-4 9-5 8-5 3-1h8z" fill="#F5F5F0"/>
<path transform="translate(510,163)" d="m0 0 24 1 26 4 23 6 21 8 25 12 17 11 16 12 14 12 13 13 9 11 12 16 12 20 8 16 8 21 6 19 5 26 1 9-4 5 1 7 4 4v39l-2 1v-36l-9-3-14-9-11-9-6-7v-28l2-3-1-7-4-11-4 13-1 4 2 3 1 8v14l-5-5-12-17-11-16v-25l2-3-1-5-3-13h-2l-1 7-3 10 3 8v12h-2l-7-9-9-10-9-9-2-1v-17l2-4-2-9-3-8-4 13 2 18-2 1-19-12-9-6v-12l2-4-1-8-3-10-4 10-1 8 2 6v5l-8-6-10-5-11-3 2-10-4-12v-3h-2l-1 7-3 9h-9l-12 1 5-6-6-1-3-8-10-10-1 21-13 7-3 3-4-1-7-5-11-4-1-21-10 10-4 10-14 4h-7l-5-15-3 8-2 5 1 6 1 5-9 4-12 7-5 6h-2v-8l3-9-5-15-5 14 1 5 1 1v16l-11 6-12 8-4 2v-12l2-5-5-16-5 15 1 4 1 2v18l-10 9-7 8-8 9-2 2v-15l2-5-4-12v-4h-2l-2 10-2 5 1 4 1 2v24l-16 24-10 14h-1v-21l2-3-1-5-4-12-5 15 2 6v28l-14 14-10 7-15 8-1 35h-1v-41l4-3 1-6-2-4-2-1 1-13 4-21 6-20 8-21 8-16 8-14 9-13 10-13 9-10 18-18 14-11 14-10 19-11 17-8 19-7 21-6 22-4z" fill="#FFFFFF"/>
<path transform="translate(429,390)" d="m0 0h1l1 21 4 15 6 10 10 14 5-16 2-9 6-11 5-5-1 4-6 13-1 6 2-1-2 11 8 4 13 4v1h-9l-10-3-5-2v7l8 4 3 1 17 1-2 2-5 1h-12l-10-4 3 9 5 2h20l-1 2-8 2h-15l3 6 5 4 2 1h12l12-5 11-7 2-2v-10l-8-10-5-5-10-5-6-7-1-6 1-2 3 1 3 4 6-3h7l9 2h11l8-2h7l4 3 4-2 2-3h2l1 6-4 6-7 6-9 4-6 8-3 3-1 3v9l8 6 14 7 3 1h12l6-3 5-9-2 1h-13l-10-3 4-1h16l6-3 1-6-9 2h-12l-7-2v-1l17-1 11-4-1-7-14 4h-8l1-2 12-3 7-4-1-7-1-4 2-1-4-11-4-8 1-2 8 11 4 12 2 9 3 9 13-18 4-8 3-11 1-8v-15l3 3 9 19 10 11 9 11 6 10 3 9 2 12v7l-2-3-4-15-5-12-8-10-11-11-6-9-2 9v11l3 10 4 8 10 13 6 10 5 14 2 10v25l-4 20-6 16-9 14-10 11-11 9-10 8-7 8-6 13-1 6-2-4v-9l3-16-8 8-7 11-4 11v20l-5-3-7-8-4-6-6 15-7 11-12 13-5 5-2-1 1-6v-19l-5-16-7-12-5-5 3 12v9l-2 7h-1l-3-17-5-12-7-9-8-9 3 16v11l-3-4-6-12-9-10-14-11-9-8-10-13-8-16-5-18-2-15v-18l3-15 5-12 7-12 8-10 5-10 2-7v-13l-2-7-8 10-10 10-9 14-5 14-3 11h-1l1-13 3-12 5-10 8-10 7-7 8-11 8-18z" fill="#5F5E5C"/>
<path transform="translate(380,611)" d="m0 0 2 3 11 21 10 14 11 12 16 15 6 5 9 12 5 12 1 14 6-9 4-12 4 5 7 11 5 12 2 12 1 52 2 15v5l-3-4-11-25-7-21-5-21 1 12 4 18 7 21 11 25 8 18 5 13 1 5 1 16 8 20v10h-3l-9-10-4-9 2 9 11 18 1 4v14l-5 6-7 3h-4l-3-8-1-9-2 4v9l1 4-5-1-3-5-1-4v-11l3-10 5-5h8l-4-2-8 1-6 7-2 6v17l1 6-6 2h-7l-2-3-1-12 1-3h-2l-2 8v9l-4-2-3-8v-8l3-12 6-8 3-2h10 2l-8-3-9 2-5 4-5 10-1 4v17l1 5-9 2-2-1-1-3-1-14-2 4-1 13-4-3-2-8 1-11 4-10 6-7 5-2h7l2 1v-2l-4-1h-10l-6 4-5 6-4 11-1 10 1 10h-6l-1-3-1-12-2 5-1 9-3-3v-14l5-10 5-4 11-6 4-5 3-8 1-6v-16l-4-24-6-26-13-41-4-12 1-3 13 26 8 20 8 26 2 8-5-24-6-20-6-15-12-25-8-16-6-18-2-14v-27l1-5 4 5 7 11 6 7-6-11-7-14-7-21-5-25z" fill="#F5F5F0"/>
<path transform="translate(643,612)" d="m0 0h1v9l-4 20-6 19-5 13-9 15 5-5 7-10 4-6h1v35l-3 16-5 14-19 38-8 21-6 21-2 12 8-26 8-20 12-25 2-2-1 6-13 42-7 26-5 27-1 9v10l3 14 4 6 8 5 8 4 5 8 2 9-1 9-3 3-1-11-2-3v9l-2 6h-6l1-15-3-12-3-6-8-7-2-1h-9l-4 2h8l6 3 6 7 4 13v9l-3 7-3 2v-9l-3-8v11l-3 7-9-2 1-17-3-12-6-9-8-4-8 1-4 2h12l7 6 4 9 1 5v12l-4 8-3 1v-12l-2-5-2 14-1 3h-8l-6-2 2-12-1-12-4-8-4-4-8-1-3 2h7l6 7 2 8v12l-3 7-3 2-3-1 1-2v-11l-1-2-3 13-2 3-7-1-6-4-3-5v-12l4-10 8-13 2-5v-3l-5 10-7 7-1 2h-2l-1-2v-8l5-12 4-13 1-16 5-13 9-20 7-16 8-21 5-19 3-20-1 3-5 20-6 18-11 26-2 5h-1l1-16 1-13 1-50 5-15 9-15 3-3 4 12 4 6 2 4 1-1v-12l4-11 8-12 13-13 8-7 13-13 10-14 9-16z" fill="#F5F5F0"/>
<path transform="translate(767,395)" d="m0 0h34v460h-24l-10-1-1-6v-452z" fill="#FFFFFF"/>
<path transform="translate(224,395)" d="m0 0h34v460h-27l-7-1z" fill="#FFFFFF"/>
<path transform="translate(455,479)" d="m0 0 4 5 7 8 1 2-3 7-8 13-5 13-1 6v14l2 8v-20l3-12 6-12 4-6 2 3 3 9 4 1 6 8 1 3-3 8-1 5v11l3 11 7 13 3 3-7-14-3-11v-14l3-11 6 2 1-3 3 2-1 8v18l5 14 8 15 5 13 3 15v21l-2 12 1 1 2-10 2-12v-13l-3-16-5-13-10-19-3-11v-13l2-8 5 2 8 7 2 4 6-8 7-5h2l3 9v17l-5 15-5 13v8l3-11 7-16 3-11v-13l-2-9v-4l5-2-1 3 6-2 3 9 1 13-3 14-8 16-3 9 11-19 4-10 1-5v-17l-3-13 7-9 3-1 3-7 1-5 4 4 7 14 3 11 1 15v4l1-4v-17l-3-12-8-15-5-8v-5l5-5 5-7 3 3 11 24 4 14 1 6v19l-4 15-7 14-11 14-14 14-8 14-4 14-2-2-1-12 3-12 7-14 8-13 5-11 2-9v-12l-3 16-5 12-10 16-7 14-3 13-2-3-2-7-6 25-8 16-8 11h-1l-2-14-7-19-1-9-8-16-13-20-7-14-3-12-1-11v16l3 12 9 17 8 11 6 10 2 5-1 3-12-12-11-9-14-14-10-16-5-13-2-10v-16l3-15 7-17z" fill="#FFFFFF"/>
<path transform="translate(657,705)" d="m0 0h11l7 3 7 6 6 12 1 3v18l-4 11-9 15-8 16-11 28-4 8 8-14 11-25 9-16 5-8 1 4-3 25-5 18-6 14-12 19-12 16-12 15-7-1h-15l-7 3h16l10 4 11 8 11 3 5 5 3 8v12l-1 3-2-1-1-8-2-4v12l-1 3h-8l1-5v-10l-4-11-6-7-5-2h-9l-5 1 1 1h9l8 4 4 5 3 10v8l-3 6-2 1v-8l-2-5-1 11-2 3h-2l-3-15-5-9-5-5-12-6-4-7-2-16 2-17 5-24 7-26 18-56 6-23 2-7 10-5z" fill="#F5F5F0"/>
<path transform="translate(356,705)" d="m0 0h10l10 3 6 3 8 32 15 46 10 36 4 20 2 14v13l-3 11-4 5-13 7-6 8-3 9-2 10-3-1-1-4v-9l-2 2-1 9-1 2-3-4-1-9 2-9 4-6 6-5 12-2-3-1h-10l-8 4-5 10-2 9 1 13-7-1-2-7v-7l-2 4-1 8-2-1-1-3v-10l3-9 7-6 11-3 11-8 9-3h16l-7-3h-15l-7 1-8-9-13-17-10-15-10-19-6-19-3-20-1-13 4 5 11 19 13 29 6 10-7-15-10-26-10-18-5-8-4-13v-12l3-10 5-8 5-5z" fill="#F5F5F0"/>
<path transform="translate(515,108)" d="m0 0h12l34 4 23 5 26 8 22 9 22 11 21 13 13 10 11 9 14 12 6 7-2 4-23 23-4-2-10-10-17-13-14-10-21-12-19-9-19-7-26-7-27-4-22-2z" fill="#FFFFFF"/>
<path transform="translate(495,108)" d="m0 0h15v39l-38 4-24 5-19 6-16 6-21 10-18 11-17 12-14 12-8 7-4 3-25-25 1-4 12-12 11-9 14-11 17-11 17-10 21-10 21-8 24-7 20-4z" fill="#FFFFFF"/>
<path transform="translate(347,352)" d="m0 0h1l1 22-5 2 4 3v42l-1 8v37l-3 15-3 6 7-3v150l-8 1h-19v-249l11-12 13-18z" fill="#FFFFFF"/>
<path transform="translate(675,353)" d="m0 0h2l11 16 12 14 3 4 1 208v38h-21l-7-1v-148l7 3-4-10-2-12v-37l-1-8v-41l4-3-4-2z" fill="#FFFFFF"/>
<path transform="translate(345,899)" d="m0 0h10l-1 4v11l3 8 6 4 5 1h13l10 2 6 5 8 3h13l5 2h10l9-2 9 3h8l11-3 6 1h14l10-5 5-6 2-7-1-14h12v18l5 8 6 4 12 3 13-2 14 3 10-1 6-2 9 2h9l7-3 9 1 9-3 5-5 12-2h13l8-3 3-3 2-5v-17h9l12 12 7 8 3 5-14 2 13 1 7 3 9 9 6 8h-420l6-8 8-8 4-5 14-5h-9l6-7 9-10z" fill="#FFFFFF"/>
<path transform="translate(723,201)" d="m0 0 7 6 10 12 13 18 12 19 8 16 8 17 7 20 7 25 4 24 2 17v5h-35l-6-36-7-23-6-16-12-25-11-18-11-15-8-10-7-8 1-4z" fill="#FFFFFF"/>
<path transform="translate(300,201)" d="m0 0 4 2 23 23-2 4-11 13-11 15-13 21-8 15-10 25-5 16-5 21-3 23-1 1h-34l1-16 3-22 8-32 10-27 9-19 13-22 14-20 11-13z" fill="#FFFFFF"/>
<path transform="translate(709,393)" d="m0 0 8 6 11 7 7 4v222l-2 3-24-1z" fill="#FFFFFF"/>
<path transform="translate(505,96)" d="m0 0h14l29 2 24 4 25 6 21 7 21 9 22 11 19 12 16 12 10 8 10 9 8 7 10 10 18 22 13 18 9 15 12 23 7 16 7 20 7 26 5 30 1 17h-7l-2-18-5-30-6-23-10-27-9-19-10-18-13-19-10-13-12-14-21-21-11-9-13-10-18-12-18-10-23-11-25-9-22-6-21-4-14-2-18-1h-29l-22 2-19 3-28 7-20 7-23 10-19 10-16 10-18 13-14 12-10 9-13 13-9 11-8 10-10 14-8 13-13 24-11 27-7 23-5 24-2 13-2 21h-7v-10l4-30 8-32 9-25 11-24 12-21 11-16 11-14 12-14 22-22 11-9 10-8 24-16 18-10 21-10 21-8 22-6 24-5 25-3z" fill="#FFFFFF"/>
<path transform="translate(314,393)" d="m0 0h1v242l-8 1h-17v-226l17-11z" fill="#FFFFFF"/>
<path transform="translate(488,734)" d="m0 0 3 3 10 18 2 10v8l10-5 8-7 8-10 8-13h1l1 20v19l-2 25-5 27-6 17-1 16-2 8-6 14-1 4v12l-8-1v-13l-5-12-3-8-1-11-2-14-5-14-4-22-2-18v-47z" fill="#FFFFFF"/>
<path transform="translate(506,152)" d="m0 0h11l26 2 19 3 26 7 19 7 18 8 14 8 18 12 18 14 9 9 8 7 9 10 12 15 12 18 12 21 10 24 6 18 6 28 2 17h-6l-1-2-3-21-4-17-10-30-12-25-10-16-12-17-11-13-12-13-22-18-17-12-26-14-27-11-30-8-24-3h-44l-23 3-24 6-20 7-22 10-22 13-18 13-12 11-8 7-7 7-7 8-11 14-10 15-12 22-8 18-9 27-5 24-2 15h-6l1-14 5-25 6-20 6-16 11-23 12-19 12-16 11-13 19-19 11-9 16-12 24-14 19-9 22-8 23-6 19-3z" fill="#FFFFFF"/>
<path transform="translate(300,951)" d="m0 0h51l2 1 1 5 6-6h277l3 2-13 7-5 4h-272v-7l-5 7h-45z" fill="#FFFFFF"/>
<path transform="translate(430,430)" d="m0 0 3 4 1 8-3 10-8 15 4-4 7-11 3-11 2 2 1 3v9l-6 16-4 11v3l12-26 1-10 4 4 4 9 3 14-10 19-7 17-3 13v24l4 16 8 17 6 12-1 2-13-14-10-14-7-14-5-17-1-6v-28l1-7-3 13v26l4 17 6 13 5 8-1 2-7-7-7-11-7-16-4-19v-28l4-15 6-12 12-18 4-10z" fill="#FFFFFF"/>
<path transform="translate(593,431)" d="m0 0 2 2 3 12 7 12 10 15 5 12 3 15v18l-3 17-6 18-8 13-10 12v-3l8-14 6-18 2-14v-13l-3-17v3l1 9v14l-2 15-6 18-7 13-10 13-12 13-1-2 12-23 5-15 2-11v-15l-3-15-6-16-11-21 1-10 2-9 6-10h1l2 12 11 24 1 3-2-11-7-16-2-8 1-10 2-2 3 10 6 10 6 8-6-11-5-12v-11z" fill="#FFFFFF"/>
<path transform="translate(481,240)" d="m0 0h7l10 3 6 4 4 5-6 12-2 7v19l5 13 4 9-1 2-10-8-7-7-6-12-5-13-6-7 6 12 6 18 4 8-5-2-10-8-9-11-7-6-6-3-10-1 11 4 10 9 11 14-3 1-21-9 8 6 13 7-4 2-4 1h-20v2h9l8 1-3 3-7 3-17 2-12 5-8 6-2 1 2-4 9-8 8-4 3-1-13 1 5-5 13-8 7-3h5v-2l-9-2-7-6-15-7 3-2 4-1h13 3l-6-2h-10l-12 4h-6l3-5 8-6 9-4 4-1h18l15 5-8-6-13-4-11-1 5-4 8-3 6-1h8l11 3 9 7 6 9 4 10 1 4-2-13-5-10-8-10-5-6-5-4h7l10 3 8 6-2-4-9-6z" fill="#F5F5F0"/>
<path transform="translate(549,243)" d="m0 0h7l-5 4-11 14-4 8-1 6 6-10 8-8 8-4 13-1 12 3 10 5-3 1h-10l-10 3-8 5-3 3 11-5 4-1h18l11 4 9 6 4 4v2l-9-1-8-3h-11l-7 3 5-1h12l7 2-2 2-16 8-5 5-7 2 13 5 10 6 7 5-4 1-10-1 8 3 9 7 3 4-5-2-6-4-9-3-17-2-8-4-1-2 16-1v-2h-20l-8-2 4-3 11-6 5-5-22 10-2-1 10-12 7-8 9-6 6-2-11 2-9 6-9 10-6 7-8 5-1-2 5-12 5-17-5 10-8 18-8 8h-2l2-10v-33l4-11 7-7 9-4z" fill="#F5F5F0"/>
<path transform="translate(806,395)" d="m0 0h7v459h-7z" fill="#FFFFFF"/>
<path transform="translate(212,395)" d="m0 0h7v459h-7z" fill="#FFFFFF"/>
<path transform="translate(400,280)" d="m0 0 1 2-4 4-6 4-8 9-4 5-5 5-11 12-8 12-9 13-13 19-12 14-5 6-8 7-12 9-11 6v435l56-7h10l3 5-36 5-34 4h-4v-54h2v-37l-2-3v-278l2-3v-35l-2-2v-33l15-8 13-10 12-12 12-16 19-28 10-13 11-13 10-10 14-11z" fill="#FFFFFF"/>
<path transform="translate(637,292)" d="m0 0 4 2 18 18 10 13 11 16 14 20 8 10 9 10 7 7 10 7 16 9v32l-2 2v39h2v278l-2 3v22l1 15 1 1v49l-64-8-6-1 2-6 21 2 39 5h3v-431l-6-2-11-7-14-12-11-12-13-18-7-10-13-19-8-10-9-10-7-8z" fill="#FFFFFF"/>
<path transform="translate(504,482)" d="m0 0h16l17 7 14 5 1 9-1 6-3-3-3 10-3 4h-2l-1-9h-2l-1 6-5 6-6 2 2-7v-5l-5 10-9 11-7-6-6-8-3-7 1 9 2 4-5-2-5-4-4-8-2 8-3-1-3-7-1-7-2 3h-2v-14l10-3 18-8z" fill="#FFFFFF"/>
<path transform="translate(267,395)" d="m0 0h2v41l-3 3v35l3 3v278l-3 3v21l1 15 2 2v58l-5 1-1-1v-458z" fill="#FFFFFF"/>
<path transform="translate(756,395)" d="m0 0h5v460h-5v-59l2-3v-35l-2-3v-278l1-1v-38l-1-1z" fill="#FFFFFF"/>
<path transform="translate(709,673)" d="m0 0 12 1v156l-11-1-1-1z" fill="#FFFFFF"/>
<path transform="translate(304,675)" d="m0 0h11v159l-11 1-1-63z" fill="#FFFFFF"/>
<path transform="translate(692,673)" d="m0 0h11l1 1v154l-12-1v-51l3-27 1-7v-8l-3-14-1-2z" fill="#FFFFFF"/>
<path transform="translate(324,674)" d="m0 0h8l1 43-4 13v17l3 26 1 58-12 2v-158z" fill="#FFFFFF"/>
<path transform="translate(726,674)" d="m0 0h8l1 1v157l-10-1z" fill="#FFFFFF"/>
<path transform="translate(290,676)" d="m0 0h8v159l-2 1h-6z" fill="#FFFFFF"/>
<path transform="translate(654,951)" d="m0 0h71v13h-99l5-4 12-6z" fill="#FFFFFF"/>
<path transform="translate(607,289)" d="m0 0h10l11 4 5 6 3 8v10l-3 12-6 10-5 4-4-2-3-5-3-9-2-5h6l-6-8-2-1v-2l6-3h-10l-2-2 8-4 8-1 6 3 3 4 1 9v3l1-3v-11l-4-6-6-3h-8l-10 4-3 2-5-1-5-3 5-5 10-4z" fill="#FFFFFF"/>
<path transform="translate(407,289)" d="m0 0h11l11 4 8 5-4 3-4 2-4-1-8-4-4-1h-7l-7 3-3 4-1 3v9l1 3 1-10 4-6 5-2 9 1 8 4v1l-13 1 6 3-6 8-2 3h6l-4 10-1 5-5 7-7-6-5-8-3-9-1-12 2-8 4-6 9-5z" fill="#FFFFFF"/>
<path transform="translate(532,240)" d="m0 0 2 1-6 7-5 10-2 10v10l1 8v17l-3 10-5 5-6-17-4-11-1-12 2-10 4-10 7-9 10-7z" fill="#FFFFFF"/>
<path transform="translate(540,343)" d="m0 0 5 5 4 8 1 5 5-3 10-1 6 2-4 1-9 1-9 5 10-3h7l6 2h8l3-1-2 4-5 3-6 2-4 5-5 3-12 2-6 11-2-1v-11l3-10-8 3-4 6h-1l1-9-5-1-6-7 1-2 8 5h10l5-5-1-7-5-8z" fill="#5F5E5C"/>
<path transform="translate(483,343)" d="m0 0 2 3-6 12 1 7 5 2 5 1 8-3 5-3-2 5-4 4-5 1 1 9-2-1-2-5-9-3 3 8v13h-2l-5-9-7-2-9-3-6-7-9-2-4-4 1-2 2 1h8l6-2h7l9 2-8-4-9-1-4-1 5-2h8l9 4 1-8z" fill="#5F5E5C"/>
<path transform="translate(354,576)" d="m0 0 2 3 8 18 7 15 5 21-3 1h-19z" fill="#FFFFFF"/>
<path transform="translate(658,465)" d="m0 0 4 5 1 2v31l4 24 1 10v15l-3 16-2 3-1-21-5-19-6-15 1-7 4-15 1-6z" fill="#FFFFFF"/>
<path transform="translate(365,465)" d="m0 0h1l1 22 4 18 2 6-1 8-7 19-3 14-1 19-2-4-2-9-1-17 2-19 3-17v-31l3-7z" fill="#FFFFFF"/>
<path transform="translate(669,577)" d="m0 0h1v55h-21l3-15 6-16 9-19z" fill="#FFFFFF"/>
<path transform="translate(642,309)" d="m0 0 7 6 11 13 10 15 1 28-4-2-6-8-10-24-6-9-1-3h-2z" fill="#FFFFFF"/>
<path transform="translate(380,309)" d="m0 0h1v17l-6 8-7 15-5 12-4 6-5 4v-28l10-15 9-11z" fill="#FFFFFF"/>
<path transform="translate(451,325)" d="m0 0 2 1-7 9-10 17-9 10-3 5-9 8-20 10-4 3-2-1 10-7 17-9 5-5-11 5-17 6-8 5-2-1 9-8 29-14 10-9 6-10-10 8-11 7 2-4 12-11 14-11z" fill="#5F5E5C"/>
<path transform="translate(385,331)" d="m0 0 8 12 6 7-8 7-9 7-11 10-9 1 13-13 10-14 4-5-7 5-10 13-1-2 6-15 6-11z" fill="#FFFFFF"/>
<path transform="translate(571,325)" d="m0 0 6 2 13 10 10 9 8 7h-3l-16-11h-1l7 10 7 6 30 15 9 8h-3l-14-7-15-5-10-6-8-7-7-11-9-15z" fill="#5F5E5C"/>
<path transform="translate(638,331)" d="m0 0 5 5 7 14 2 9-5-5-9-10h-2l7 9 9 12 10 10-8-1-8-7-12-10-9-7 6-7 4-5z" fill="#FFFFFF"/>
<path transform="translate(386,882)" d="m0 0m-1 1m-1 1m-1 1 1 2-5 5-4 10-1 12 1 7-7-1-2-7v-7l-2 4-1 8-2-1-1-3v-10l3-9 7-6 11-3z" fill="#FFFFFF"/>
<path transform="translate(676,672)" d="m0 0h10l1 1v36l-8-6-3-2z" fill="#FFFFFF"/>
<path transform="translate(721,643)" d="m0 0 8 2 4 6v7l-4 5-4 2-7-1-6-6v-8l5-6z" fill="#FFFFFF"/>
<path transform="translate(492,431)" d="m0 0 10 1 4 1h13l7-2h6l2 3-10 3-3 4-3 9-5 4v-11h-2v8l-2 2-3-3-4-11-6-4-5-1z" fill="#FFFFFF"/>
<path transform="translate(654,641)" d="m0 0 7 1 5 5 1 7-4 6-3 2-9-1-5-6-1-4 3-7z" fill="#FFFFFF"/>
<path transform="translate(333,644)" d="m0 0 7 1 5 6v6l-4 6-3 2h-7l-6-5-1-2v-6l3-5z" fill="#FFFFFF"/>
<path transform="translate(364,643)" d="m0 0h8l5 5 1 2v6l-6 7-7 1-6-4-2-4v-6l5-6z" fill="#FFFFFF"/>
<path transform="translate(685,643)" d="m0 0h9l5 5 1 2-1 9-5 4h-8l-6-5-1-2v-6l3-5z" fill="#FFFFFF"/>
<path transform="translate(751,385)" d="m0 0h66l1 4-1 1h-66l-1-4z" fill="#FFFFFF"/>
<path transform="translate(299,645)" d="m0 0 7 1 5 5 1 5-3 7-4 3h-7l-6-5-1-8 4-6z" fill="#FFFFFF"/>
<path transform="translate(207,385)" d="m0 0h66l1 5h-67z" fill="#FFFFFF"/>
<path transform="translate(534,654)" d="m0 0 1 3-12 24-4 15v18l3 21-2 13h-1v-9l-3-16-2-9v-19l3-12 9-17z" fill="#5F5E5C"/>
<path transform="translate(338,674)" d="m0 0h10v27l-9 7-2 1z" fill="#FFFFFF"/>
<path transform="translate(659,671)" d="m0 0 11 1v26h-11l-1-12v-14z" fill="#FFFFFF"/>
<path transform="translate(356,673)" d="m0 0h9l1 1v24h-12v-24z" fill="#FFFFFF"/>
<path transform="translate(372,672)" d="m0 0h8l1 2-1 28-9-3v-26z" fill="#FFFFFF"/>
<path transform="translate(644,671)" d="m0 0h9v29l-9 2z" fill="#FFFFFF"/>
<path transform="translate(469,626)" d="m0 0h1l1 15 5 17 11 23 1 7-2-2-6-12-6-10-5-12-2-13 1-12z" fill="#5F5E5C"/>
<path transform="translate(512,333)" d="m0 0h1l2 11 8-7 2 1-6 7-4 8-2 6-2-1-4-10-8-10-1-2 5 2 6 6 2-10z" fill="#5F5E5C"/>
<path transform="translate(438,383)" d="m0 0 1 4 1 12 5 10 8 11 1 7-2-1-3-6-10-12-3-8v-12z" fill="#5F5E5C"/>
<path transform="translate(586,384)" d="m0 0 2 2 1 8-2 10-6 10-7 7-2 6-2-1 3-9 8-11 4-11z" fill="#5F5E5C"/>
<path transform="translate(337,806)" d="m0 0 2 3 8 18v3h-10z" fill="#FFFFFF"/>
<path transform="translate(746,440)" d="m0 0h8v14l-1 1h-7z" fill="#FFFFFF"/>
<path transform="translate(747,777)" d="m0 0h7v15h-7l-1-1v-13z" fill="#FFFFFF"/>
<path transform="translate(271,440)" d="m0 0h6l1 1v13l-1 1h-6l-1-1v-13z" fill="#FFFFFF"/>
<path transform="translate(273,458)" d="m0 0 5 1v13l-1 1h-7v-14z" fill="#FFFFFF"/>
<path transform="translate(273,777)" d="m0 0 5 1v13l-2 1h-6v-14z" fill="#FFFFFF"/>
<path transform="translate(751,458)" d="m0 0 3 1v14h-8v-14z" fill="#FFFFFF"/>
<path transform="translate(747,759)" d="m0 0h6l1 1v13h-8v-13z" fill="#FFFFFF"/>
<path transform="translate(274,759)" d="m0 0h4v14h-8v-13z" fill="#FFFFFF"/>
<path transform="translate(490,390)" d="m0 0v3l-7 14-3 11h-2v-10l4-9 7-8z" fill="#5F5E5C"/>
<path transform="translate(533,390)" d="m0 0 7 6 5 8 1 3v11l-2-2-5-14-6-10z" fill="#5F5E5C"/>
<path transform="translate(354,382)" d="m0 0h9l-2 5-6 12h-1z" fill="#FFFFFF"/>
<path transform="translate(686,807)" d="m0 0h1v19l-8-1z" fill="#FFFFFF"/>
<path transform="translate(661,382)" d="m0 0h9v16l-3-4z" fill="#FFFFFF"/>
<path transform="translate(561,368)" d="m0 0h3l-1 6-6 3-6-1-2-4 3-1 4 1z" fill="#FFFFFF"/>
<path transform="translate(460,369)" d="m0 0h5l2 2h6l2 1-2 4-6 1-5-3-2-2z" fill="#FFFFFF"/>
<path transform="translate(599,364)" d="m0 0 8 6 16 9 5 3-2 1-17-8-10-9z" fill="#5F5E5C"/>
<path transform="translate(575,375)" d="m0 0 2 1-6 9-5 3-10 1 1-2 9-3 6-5z" fill="#5F5E5C"/>
<path transform="translate(447,375)" d="m0 0 4 2 5 5 4 3 9 3v1h-7l-8-4-5-6z" fill="#5F5E5C"/>
<path transform="translate(507,484)" d="m0 0h10l5 3-1 2-2-1h-13l-4 1 1-3z" fill="#5F5E5C"/>
<path transform="translate(696,638)" d="m0 0h7l1 1v6l-5-4z" fill="#FFFFFF"/>
<path transform="translate(484,225)" d="m0 0h2v8h-4v-5z" fill="#FFFFFF"/>
</svg>
